<svg xmlns="http://www.w3.org/2000/svg" viewBox="0 0 1897 710" role="img" aria-label="Biwlee42 logo">
  <path fill="currentColor" fill-rule="evenodd" d="M 666.0 321.0 L 644.0 314.0 L 624.0 335.0 L 623.0 343.0 L 632.0 348.0 L 648.0 333.0 L 652.0 335.0 L 648.0 403.0 L 616.0 542.0 L 585.0 615.0 L 573.0 606.0 L 567.0 588.0 L 569.0 569.0 L 564.0 567.0 L 571.0 556.0 L 571.0 533.0 L 566.0 529.0 L 571.0 472.0 L 563.0 452.0 L 552.0 447.0 L 527.0 463.0 L 429.0 633.0 L 416.0 596.0 L 416.0 560.0 L 409.0 538.0 L 413.0 518.0 L 404.0 403.0 L 405.0 343.0 L 412.0 326.0 L 408.0 320.0 L 397.0 320.0 L 388.0 355.0 L 390.0 490.0 L 400.0 600.0 L 415.0 649.0 L 437.0 651.0 L 450.0 640.0 L 467.0 613.0 L 468.0 597.0 L 479.0 589.0 L 499.0 542.0 L 515.0 523.0 L 514.0 513.0 L 520.0 512.0 L 518.0 507.0 L 545.0 469.0 L 553.0 475.0 L 551.0 570.0 L 556.0 612.0 L 573.0 634.0 L 587.0 635.0 L 602.0 623.0 L 635.0 542.0 L 645.0 505.0 L 643.0 492.0 L 652.0 479.0 L 653.0 455.0 L 660.0 448.0 L 665.0 412.0 L 660.0 404.0 L 666.0 402.0 L 671.0 346.0 Z M 997.0 287.0 L 982.0 289.0 L 964.0 298.0 L 952.0 311.0 L 947.0 311.0 L 919.0 342.0 L 899.0 374.0 L 887.0 407.0 L 882.0 435.0 L 878.0 441.0 L 864.0 439.0 L 854.0 427.0 L 843.0 426.0 L 840.0 433.0 L 840.0 440.0 L 851.0 454.0 L 869.0 459.0 L 874.0 457.0 L 878.0 462.0 L 878.0 527.0 L 885.0 552.0 L 902.0 573.0 L 930.0 585.0 L 934.0 583.0 L 945.0 587.0 L 981.0 579.0 L 985.0 576.0 L 983.0 574.0 L 985.0 572.0 L 998.0 571.0 L 1004.0 562.0 L 1009.0 564.0 L 1011.0 560.0 L 1018.0 560.0 L 1033.0 546.0 L 1037.0 546.0 L 1038.0 540.0 L 1044.0 543.0 L 1050.0 535.0 L 1058.0 532.0 L 1059.0 519.0 L 1051.0 515.0 L 985.0 557.0 L 961.0 566.0 L 939.0 567.0 L 911.0 555.0 L 897.0 530.0 L 895.0 518.0 L 898.0 514.0 L 893.0 504.0 L 896.0 499.0 L 894.0 477.0 L 900.0 459.0 L 906.0 453.0 L 910.0 454.0 L 918.0 448.0 L 922.0 449.0 L 926.0 445.0 L 938.0 442.0 L 941.0 435.0 L 948.0 436.0 L 971.0 421.0 L 974.0 414.0 L 980.0 414.0 L 985.0 406.0 L 989.0 407.0 L 992.0 400.0 L 996.0 401.0 L 1006.0 392.0 L 1006.0 388.0 L 1014.0 381.0 L 1012.0 376.0 L 1020.0 373.0 L 1012.0 370.0 L 1015.0 367.0 L 1023.0 367.0 L 1026.0 362.0 L 1023.0 357.0 L 1030.0 352.0 L 1031.0 341.0 L 1028.0 338.0 L 1032.0 331.0 L 1029.0 327.0 L 1028.0 313.0 L 1015.0 294.0 Z M 953.0 425.0 L 954.0 424.0 L 954.0 423.0 L 956.0 421.0 L 958.0 421.0 L 962.0 425.0 L 960.0 427.0 L 955.0 427.0 Z M 1002.0 306.0 L 1004.0 308.0 L 1003.0 311.0 L 1011.0 320.0 L 1012.0 327.0 L 1014.0 332.0 L 1013.0 334.0 L 1013.0 342.0 L 1011.0 347.0 L 1011.0 351.0 L 1007.0 358.0 L 1007.0 360.0 L 1003.0 364.0 L 1002.0 367.0 L 999.0 369.0 L 990.0 379.0 L 982.0 390.0 L 978.0 390.0 L 971.0 397.0 L 966.0 400.0 L 960.0 407.0 L 957.0 407.0 L 953.0 409.0 L 947.0 415.0 L 944.0 416.0 L 942.0 419.0 L 938.0 420.0 L 936.0 423.0 L 931.0 423.0 L 926.0 427.0 L 917.0 430.0 L 914.0 432.0 L 912.0 432.0 L 905.0 437.0 L 900.0 431.0 L 900.0 429.0 L 902.0 427.0 L 902.0 423.0 L 905.0 417.0 L 905.0 414.0 L 903.0 412.0 L 907.0 409.0 L 907.0 402.0 L 908.0 399.0 L 912.0 395.0 L 913.0 393.0 L 913.0 389.0 L 917.0 385.0 L 917.0 382.0 L 919.0 379.0 L 919.0 377.0 L 925.0 369.0 L 925.0 366.0 L 928.0 364.0 L 929.0 362.0 L 928.0 359.0 L 932.0 354.0 L 935.0 353.0 L 935.0 349.0 L 933.0 347.0 L 935.0 345.0 L 937.0 346.0 L 939.0 345.0 L 937.0 342.0 L 939.0 340.0 L 940.0 341.0 L 945.0 341.0 L 947.0 339.0 L 947.0 337.0 L 950.0 333.0 L 948.0 330.0 L 950.0 328.0 L 951.0 329.0 L 959.0 328.0 L 959.0 324.0 L 958.0 323.0 L 959.0 321.0 L 958.0 318.0 L 960.0 316.0 L 962.0 318.0 L 962.0 321.0 L 965.0 321.0 L 968.0 320.0 L 969.0 318.0 L 973.0 315.0 L 973.0 313.0 L 975.0 311.0 L 978.0 312.0 L 981.0 309.0 L 984.0 309.0 L 988.0 307.0 L 993.0 307.0 L 994.0 306.0 L 996.0 307.0 L 1000.0 307.0 Z M 1221.0 265.0 L 1206.0 261.0 L 1184.0 264.0 L 1156.0 282.0 L 1122.0 317.0 L 1104.0 345.0 L 1086.0 385.0 L 1077.0 419.0 L 1074.0 422.0 L 1054.0 418.0 L 1044.0 421.0 L 1046.0 426.0 L 1043.0 432.0 L 1049.0 437.0 L 1071.0 440.0 L 1074.0 444.0 L 1070.0 493.0 L 1073.0 523.0 L 1081.0 540.0 L 1106.0 560.0 L 1140.0 567.0 L 1145.0 564.0 L 1177.0 562.0 L 1182.0 556.0 L 1187.0 557.0 L 1204.0 550.0 L 1243.0 527.0 L 1244.0 520.0 L 1248.0 522.0 L 1250.0 516.0 L 1254.0 517.0 L 1252.0 511.0 L 1254.0 509.0 L 1258.0 513.0 L 1274.0 499.0 L 1278.0 488.0 L 1285.0 485.0 L 1294.0 472.0 L 1290.0 460.0 L 1280.0 460.0 L 1267.0 479.0 L 1225.0 516.0 L 1196.0 534.0 L 1166.0 545.0 L 1120.0 545.0 L 1098.0 527.0 L 1090.0 513.0 L 1092.0 503.0 L 1088.0 489.0 L 1091.0 479.0 L 1088.0 469.0 L 1094.0 443.0 L 1099.0 438.0 L 1110.0 437.0 L 1112.0 433.0 L 1118.0 434.0 L 1139.0 426.0 L 1143.0 418.0 L 1147.0 420.0 L 1156.0 411.0 L 1158.0 415.0 L 1165.0 413.0 L 1180.0 402.0 L 1183.0 395.0 L 1189.0 395.0 L 1192.0 388.0 L 1197.0 390.0 L 1201.0 384.0 L 1205.0 384.0 L 1207.0 378.0 L 1213.0 378.0 L 1216.0 375.0 L 1214.0 370.0 L 1223.0 363.0 L 1227.0 364.0 L 1232.0 359.0 L 1230.0 354.0 L 1240.0 348.0 L 1239.0 344.0 L 1245.0 338.0 L 1244.0 332.0 L 1249.0 321.0 L 1248.0 298.0 L 1234.0 274.0 Z M 1216.0 284.0 L 1229.0 300.0 L 1229.0 303.0 L 1230.0 304.0 L 1230.0 315.0 L 1232.0 319.0 L 1230.0 322.0 L 1228.0 331.0 L 1224.0 335.0 L 1214.0 351.0 L 1205.0 359.0 L 1203.0 362.0 L 1200.0 363.0 L 1196.0 368.0 L 1192.0 370.0 L 1186.0 377.0 L 1184.0 377.0 L 1181.0 381.0 L 1178.0 380.0 L 1175.0 382.0 L 1169.0 389.0 L 1164.0 390.0 L 1155.0 397.0 L 1151.0 398.0 L 1148.0 401.0 L 1141.0 404.0 L 1138.0 407.0 L 1135.0 406.0 L 1131.0 409.0 L 1129.0 409.0 L 1122.0 413.0 L 1117.0 414.0 L 1109.0 418.0 L 1098.0 419.0 L 1096.0 417.0 L 1100.0 408.0 L 1099.0 404.0 L 1105.0 395.0 L 1105.0 388.0 L 1106.0 387.0 L 1105.0 385.0 L 1108.0 382.0 L 1109.0 378.0 L 1112.0 375.0 L 1112.0 372.0 L 1114.0 367.0 L 1112.0 365.0 L 1113.0 361.0 L 1115.0 359.0 L 1118.0 360.0 L 1121.0 356.0 L 1121.0 353.0 L 1122.0 352.0 L 1122.0 349.0 L 1121.0 348.0 L 1123.0 346.0 L 1125.0 347.0 L 1131.0 340.0 L 1131.0 337.0 L 1134.0 334.0 L 1134.0 331.0 L 1139.0 328.0 L 1145.0 319.0 L 1153.0 313.0 L 1156.0 305.0 L 1161.0 302.0 L 1161.0 300.0 L 1163.0 298.0 L 1169.0 297.0 L 1172.0 294.0 L 1175.0 293.0 L 1178.0 288.0 L 1181.0 289.0 L 1182.0 286.0 L 1184.0 284.0 L 1187.0 284.0 L 1192.0 278.0 L 1194.0 280.0 L 1196.0 280.0 L 1199.0 278.0 L 1201.0 281.0 L 1203.0 280.0 L 1208.0 281.0 L 1209.0 280.0 Z M 1760.0 108.0 L 1723.0 100.0 L 1667.0 114.0 L 1615.0 155.0 L 1582.0 206.0 L 1579.0 243.0 L 1593.0 255.0 L 1600.0 246.0 L 1595.0 240.0 L 1594.0 226.0 L 1600.0 214.0 L 1595.0 208.0 L 1608.0 198.0 L 1612.0 183.0 L 1679.0 126.0 L 1735.0 119.0 L 1753.0 126.0 L 1772.0 147.0 L 1781.0 191.0 L 1777.0 232.0 L 1734.0 328.0 L 1664.0 422.0 L 1565.0 515.0 L 1561.0 528.0 L 1569.0 535.0 L 1585.0 537.0 L 1593.0 531.0 L 1624.0 527.0 L 1627.0 519.0 L 1646.0 522.0 L 1673.0 511.0 L 1679.0 514.0 L 1712.0 505.0 L 1751.0 503.0 L 1760.0 495.0 L 1767.0 501.0 L 1795.0 495.0 L 1848.0 497.0 L 1854.0 492.0 L 1866.0 499.0 L 1876.0 487.0 L 1873.0 480.0 L 1860.0 478.0 L 1775.0 480.0 L 1678.0 493.0 L 1602.0 513.0 L 1593.0 509.0 L 1613.0 496.0 L 1621.0 481.0 L 1629.0 481.0 L 1670.0 445.0 L 1677.0 430.0 L 1709.0 398.0 L 1732.0 366.0 L 1739.0 346.0 L 1758.0 325.0 L 1776.0 282.0 L 1773.0 279.0 L 1779.0 278.0 L 1776.0 270.0 L 1785.0 263.0 L 1793.0 240.0 L 1791.0 226.0 L 1798.0 214.0 L 1794.0 194.0 L 1798.0 178.0 L 1786.0 135.0 L 1778.0 121.0 Z M 1787.0 238.0 L 1788.0 238.0 L 1790.0 240.0 L 1788.0 242.0 L 1787.0 242.0 L 1785.0 240.0 Z M 1705.0 114.0 L 1707.0 116.0 L 1707.0 119.0 L 1705.0 121.0 L 1703.0 119.0 L 1703.0 116.0 Z M 336.0 105.0 L 314.0 97.0 L 241.0 100.0 L 174.0 115.0 L 118.0 138.0 L 117.0 123.0 L 122.0 121.0 L 130.0 104.0 L 123.0 95.0 L 117.0 95.0 L 107.0 106.0 L 85.0 171.0 L 30.0 551.0 L 20.0 655.0 L 24.0 676.0 L 34.0 688.0 L 45.0 682.0 L 72.0 685.0 L 75.0 681.0 L 85.0 684.0 L 117.0 677.0 L 156.0 660.0 L 163.0 652.0 L 169.0 653.0 L 178.0 643.0 L 187.0 643.0 L 207.0 626.0 L 220.0 621.0 L 261.0 587.0 L 282.0 560.0 L 285.0 562.0 L 295.0 553.0 L 332.0 499.0 L 329.0 493.0 L 339.0 484.0 L 337.0 478.0 L 346.0 472.0 L 364.0 408.0 L 359.0 396.0 L 361.0 390.0 L 355.0 383.0 L 360.0 377.0 L 347.0 359.0 L 350.0 354.0 L 339.0 348.0 L 342.0 343.0 L 314.0 321.0 L 278.0 313.0 L 310.0 269.0 L 327.0 229.0 L 333.0 226.0 L 339.0 199.0 L 347.0 195.0 L 347.0 184.0 L 353.0 178.0 L 351.0 171.0 L 358.0 153.0 L 356.0 134.0 L 347.0 114.0 L 341.0 113.0 Z M 31.0 617.0 L 35.0 621.0 L 33.0 623.0 L 29.0 619.0 Z M 229.0 341.0 L 229.0 342.0 L 220.0 351.0 L 214.0 355.0 L 213.0 358.0 L 210.0 361.0 L 208.0 361.0 L 204.0 365.0 L 199.0 368.0 L 193.0 374.0 L 192.0 374.0 L 186.0 380.0 L 185.0 380.0 L 183.0 383.0 L 178.0 385.0 L 174.0 389.0 L 171.0 390.0 L 157.0 401.0 L 155.0 401.0 L 152.0 405.0 L 148.0 406.0 L 145.0 410.0 L 142.0 410.0 L 136.0 414.0 L 129.0 416.0 L 127.0 418.0 L 124.0 418.0 L 121.0 421.0 L 118.0 422.0 L 115.0 426.0 L 114.0 425.0 L 109.0 425.0 L 105.0 428.0 L 101.0 428.0 L 93.0 431.0 L 92.0 430.0 L 87.0 430.0 L 85.0 428.0 L 88.0 426.0 L 88.0 425.0 L 91.0 422.0 L 93.0 422.0 L 95.0 420.0 L 95.0 418.0 L 102.0 413.0 L 103.0 410.0 L 105.0 408.0 L 107.0 408.0 L 106.0 406.0 L 108.0 404.0 L 112.0 404.0 L 117.0 399.0 L 120.0 398.0 L 121.0 394.0 L 124.0 392.0 L 127.0 388.0 L 131.0 387.0 L 132.0 386.0 L 132.0 384.0 L 134.0 382.0 L 140.0 382.0 L 143.0 379.0 L 145.0 379.0 L 146.0 378.0 L 146.0 376.0 L 145.0 375.0 L 148.0 372.0 L 153.0 373.0 L 154.0 372.0 L 154.0 370.0 L 156.0 368.0 L 159.0 370.0 L 166.0 362.0 L 168.0 363.0 L 172.0 360.0 L 176.0 360.0 L 177.0 359.0 L 177.0 357.0 L 179.0 355.0 L 180.0 356.0 L 183.0 356.0 L 188.0 352.0 L 193.0 351.0 L 195.0 348.0 L 199.0 348.0 L 197.0 345.0 L 199.0 343.0 L 204.0 346.0 L 209.0 346.0 L 212.0 344.0 L 218.0 343.0 L 223.0 339.0 L 227.0 339.0 Z M 319.0 347.0 L 332.0 360.0 L 346.0 394.0 L 344.0 420.0 L 335.0 449.0 L 315.0 493.0 L 290.0 531.0 L 244.0 577.0 L 195.0 616.0 L 189.0 617.0 L 136.0 649.0 L 104.0 661.0 L 67.0 666.0 L 63.0 665.0 L 57.0 657.0 L 60.0 651.0 L 57.0 634.0 L 53.0 637.0 L 48.0 636.0 L 40.0 648.0 L 37.0 642.0 L 41.0 634.0 L 39.0 617.0 L 43.0 607.0 L 41.0 604.0 L 43.0 593.0 L 39.0 591.0 L 42.0 588.0 L 45.0 589.0 L 46.0 576.0 L 42.0 572.0 L 48.0 565.0 L 47.0 559.0 L 51.0 549.0 L 49.0 545.0 L 52.0 535.0 L 51.0 528.0 L 55.0 520.0 L 52.0 513.0 L 55.0 511.0 L 54.0 505.0 L 59.0 498.0 L 55.0 489.0 L 60.0 486.0 L 60.0 481.0 L 55.0 474.0 L 62.0 463.0 L 59.0 455.0 L 64.0 451.0 L 62.0 442.0 L 64.0 434.0 L 68.0 431.0 L 72.0 435.0 L 72.0 441.0 L 86.0 450.0 L 102.0 448.0 L 108.0 442.0 L 110.0 446.0 L 122.0 441.0 L 126.0 435.0 L 132.0 436.0 L 135.0 430.0 L 143.0 432.0 L 159.0 420.0 L 174.0 413.0 L 184.0 402.0 L 189.0 402.0 L 197.0 391.0 L 201.0 392.0 L 225.0 371.0 L 223.0 369.0 L 225.0 366.0 L 228.0 369.0 L 256.0 339.0 L 263.0 336.0 L 282.0 335.0 L 285.0 332.0 L 289.0 335.0 L 301.0 336.0 L 312.0 345.0 Z M 124.0 151.0 L 126.0 153.0 L 123.0 156.0 L 121.0 154.0 L 121.0 153.0 L 123.0 151.0 Z M 329.0 122.0 L 335.0 130.0 L 338.0 146.0 L 337.0 166.0 L 332.0 181.0 L 307.0 236.0 L 289.0 268.0 L 261.0 308.0 L 253.0 316.0 L 203.0 326.0 L 151.0 351.0 L 118.0 374.0 L 78.0 409.0 L 68.0 426.0 L 66.0 424.0 L 66.0 414.0 L 68.0 412.0 L 66.0 407.0 L 70.0 406.0 L 71.0 393.0 L 68.0 389.0 L 73.0 385.0 L 71.0 376.0 L 74.0 374.0 L 73.0 369.0 L 76.0 366.0 L 75.0 361.0 L 71.0 358.0 L 75.0 354.0 L 77.0 344.0 L 76.0 335.0 L 78.0 331.0 L 76.0 327.0 L 82.0 317.0 L 83.0 303.0 L 80.0 300.0 L 84.0 295.0 L 81.0 291.0 L 85.0 288.0 L 86.0 273.0 L 90.0 266.0 L 89.0 257.0 L 93.0 244.0 L 91.0 238.0 L 94.0 235.0 L 92.0 227.0 L 95.0 225.0 L 98.0 215.0 L 97.0 208.0 L 108.0 189.0 L 105.0 181.0 L 110.0 168.0 L 119.0 159.0 L 125.0 158.0 L 130.0 153.0 L 128.0 151.0 L 131.0 148.0 L 136.0 148.0 L 139.0 144.0 L 155.0 143.0 L 173.0 133.0 L 179.0 134.0 L 184.0 133.0 L 186.0 130.0 L 196.0 130.0 L 200.0 125.0 L 215.0 125.0 L 223.0 121.0 L 233.0 121.0 L 240.0 118.0 L 286.0 117.0 L 288.0 115.0 L 297.0 116.0 L 307.0 114.0 L 310.0 118.0 L 317.0 116.0 L 323.0 121.0 Z M 310.0 110.0 L 312.0 112.0 L 313.0 112.0 L 315.0 114.0 L 313.0 116.0 L 310.0 116.0 L 308.0 114.0 L 308.0 112.0 Z M 1421.0 90.0 L 1361.0 143.0 L 1323.0 199.0 L 1296.0 258.0 L 1286.0 327.0 L 1293.0 354.0 L 1299.0 352.0 L 1304.0 365.0 L 1319.0 368.0 L 1326.0 375.0 L 1366.0 382.0 L 1367.0 376.0 L 1378.0 382.0 L 1435.0 380.0 L 1435.0 523.0 L 1451.0 582.0 L 1461.0 586.0 L 1470.0 574.0 L 1454.0 538.0 L 1448.0 471.0 L 1452.0 462.0 L 1447.0 456.0 L 1455.0 378.0 L 1469.0 368.0 L 1482.0 369.0 L 1522.0 354.0 L 1530.0 342.0 L 1520.0 334.0 L 1458.0 354.0 L 1451.0 342.0 L 1459.0 328.0 L 1462.0 257.0 L 1475.0 195.0 L 1470.0 191.0 L 1477.0 188.0 L 1479.0 167.0 L 1503.0 112.0 L 1501.0 99.0 L 1490.0 97.0 L 1462.0 167.0 L 1446.0 250.0 L 1437.0 356.0 L 1421.0 363.0 L 1352.0 364.0 L 1321.0 354.0 L 1302.0 327.0 L 1302.0 303.0 L 1307.0 301.0 L 1304.0 291.0 L 1309.0 289.0 L 1315.0 255.0 L 1336.0 217.0 L 1334.0 212.0 L 1359.0 179.0 L 1361.0 167.0 L 1372.0 162.0 L 1399.0 127.0 L 1404.0 128.0 L 1432.0 103.0 L 1432.0 94.0 Z M 1448.0 430.0 L 1451.0 433.0 L 1449.0 435.0 L 1448.0 435.0 L 1446.0 433.0 L 1446.0 432.0 Z M 814.0 20.0 L 805.0 20.0 L 793.0 35.0 L 777.0 97.0 L 766.0 225.0 L 763.0 378.0 L 744.0 444.0 L 709.0 515.0 L 685.0 555.0 L 640.0 612.0 L 642.0 621.0 L 647.0 619.0 L 649.0 624.0 L 662.0 618.0 L 671.0 600.0 L 709.0 553.0 L 711.0 538.0 L 717.0 537.0 L 720.0 525.0 L 729.0 518.0 L 739.0 490.0 L 751.0 473.0 L 751.0 463.0 L 761.0 450.0 L 766.0 464.0 L 764.0 474.0 L 775.0 546.0 L 787.0 580.0 L 806.0 612.0 L 820.0 603.0 L 820.0 597.0 L 805.0 578.0 L 790.0 539.0 L 790.0 516.0 L 785.0 512.0 L 787.0 493.0 L 781.0 473.0 L 783.0 449.0 L 778.0 433.0 L 782.0 426.0 L 782.0 371.0 L 788.0 364.0 L 788.0 351.0 L 793.0 347.0 L 806.0 288.0 L 802.0 280.0 L 810.0 266.0 L 806.0 257.0 L 812.0 254.0 L 817.0 222.0 L 814.0 207.0 L 820.0 191.0 L 817.0 183.0 L 822.0 179.0 L 822.0 142.0 L 827.0 117.0 L 824.0 105.0 L 828.0 91.0 L 824.0 58.0 L 828.0 57.0 L 828.0 45.0 L 819.0 28.0 L 821.0 25.0 Z M 804.0 580.0 L 806.0 582.0 L 806.0 583.0 L 804.0 585.0 L 802.0 583.0 L 802.0 582.0 Z M 798.0 309.0 L 800.0 311.0 L 800.0 312.0 L 798.0 314.0 L 796.0 312.0 L 796.0 311.0 Z M 781.0 287.0 L 782.0 287.0 L 784.0 289.0 L 784.0 290.0 L 782.0 292.0 L 781.0 292.0 L 779.0 290.0 L 779.0 289.0 Z M 807.0 58.0 L 810.0 61.0 L 810.0 65.0 L 809.0 66.0 L 810.0 68.0 L 809.0 71.0 L 810.0 92.0 L 808.0 99.0 L 809.0 101.0 L 808.0 111.0 L 809.0 112.0 L 808.0 113.0 L 807.0 127.0 L 806.0 128.0 L 806.0 145.0 L 805.0 146.0 L 805.0 154.0 L 803.0 162.0 L 804.0 167.0 L 802.0 171.0 L 803.0 172.0 L 803.0 176.0 L 801.0 185.0 L 803.0 191.0 L 800.0 195.0 L 801.0 197.0 L 799.0 204.0 L 800.0 210.0 L 798.0 217.0 L 797.0 230.0 L 795.0 235.0 L 795.0 246.0 L 793.0 249.0 L 793.0 256.0 L 791.0 260.0 L 792.0 267.0 L 789.0 271.0 L 787.0 281.0 L 784.0 286.0 L 782.0 284.0 L 781.0 275.0 L 780.0 274.0 L 783.0 270.0 L 783.0 265.0 L 784.0 264.0 L 783.0 263.0 L 783.0 259.0 L 781.0 260.0 L 779.0 258.0 L 779.0 255.0 L 784.0 250.0 L 783.0 249.0 L 785.0 240.0 L 784.0 233.0 L 786.0 231.0 L 785.0 227.0 L 786.0 219.0 L 784.0 217.0 L 784.0 209.0 L 787.0 205.0 L 786.0 195.0 L 788.0 193.0 L 786.0 184.0 L 789.0 180.0 L 785.0 172.0 L 789.0 168.0 L 788.0 165.0 L 789.0 163.0 L 788.0 153.0 L 790.0 148.0 L 787.0 144.0 L 789.0 142.0 L 791.0 142.0 L 790.0 137.0 L 792.0 135.0 L 792.0 133.0 L 790.0 131.0 L 790.0 129.0 L 792.0 126.0 L 792.0 122.0 L 791.0 121.0 L 792.0 120.0 L 792.0 116.0 L 794.0 114.0 L 794.0 110.0 L 792.0 107.0 L 797.0 98.0 L 796.0 91.0 L 797.0 87.0 L 799.0 85.0 L 799.0 76.0 L 803.0 72.0 L 803.0 69.0 L 805.0 66.0 L 805.0 60.0 Z"/>
</svg>
