<svg xmlns="http://www.w3.org/2000/svg" viewBox="0 0 925 979" role="img" aria-label="Biwlee42 logo">
  <path fill="currentColor" fill-rule="evenodd" d="M 589.0 265.0 L 542.0 249.0 L 469.0 249.0 L 406.0 272.0 L 360.0 307.0 L 361.0 266.0 L 372.0 262.0 L 373.0 250.0 L 364.0 236.0 L 348.0 239.0 L 316.0 405.0 L 308.0 586.0 L 283.0 863.0 L 295.0 883.0 L 307.0 879.0 L 305.0 868.0 L 313.0 874.0 L 315.0 863.0 L 303.0 826.0 L 312.0 822.0 L 320.0 691.0 L 358.0 651.0 L 365.0 657.0 L 394.0 628.0 L 430.0 610.0 L 436.0 595.0 L 454.0 592.0 L 471.0 565.0 L 559.0 545.0 L 603.0 556.0 L 642.0 594.0 L 641.0 645.0 L 579.0 737.0 L 533.0 776.0 L 434.0 823.0 L 399.0 829.0 L 369.0 818.0 L 363.0 834.0 L 387.0 856.0 L 427.0 852.0 L 430.0 842.0 L 432.0 849.0 L 458.0 843.0 L 462.0 835.0 L 480.0 835.0 L 501.0 817.0 L 509.0 821.0 L 530.0 808.0 L 538.0 795.0 L 578.0 772.0 L 579.0 756.0 L 594.0 756.0 L 637.0 709.0 L 631.0 694.0 L 642.0 698.0 L 659.0 673.0 L 675.0 616.0 L 653.0 560.0 L 599.0 528.0 L 522.0 521.0 L 604.0 421.0 L 598.0 408.0 L 614.0 399.0 L 613.0 387.0 L 626.0 373.0 L 619.0 358.0 L 632.0 353.0 L 626.0 304.0 L 615.0 284.0 Z M 310.0 858.0 L 314.0 862.0 L 312.0 864.0 L 308.0 860.0 Z M 484.0 819.0 L 484.0 818.0 L 486.0 816.0 L 486.0 815.0 L 488.0 813.0 L 489.0 814.0 L 492.0 814.0 L 493.0 815.0 L 494.0 815.0 L 496.0 817.0 L 492.0 821.0 L 491.0 820.0 L 489.0 820.0 L 488.0 821.0 L 486.0 821.0 Z M 519.0 804.0 L 521.0 806.0 L 521.0 807.0 L 519.0 809.0 L 517.0 807.0 L 517.0 806.0 Z M 585.0 750.0 L 586.0 750.0 L 588.0 752.0 L 586.0 754.0 L 585.0 754.0 L 583.0 752.0 Z M 601.0 733.0 L 603.0 731.0 L 604.0 731.0 L 605.0 732.0 L 606.0 732.0 L 608.0 734.0 L 606.0 736.0 L 603.0 736.0 L 601.0 734.0 Z M 392.0 596.0 L 393.0 596.0 L 395.0 598.0 L 395.0 599.0 L 393.0 601.0 L 392.0 601.0 L 390.0 599.0 L 390.0 598.0 Z M 579.0 425.0 L 580.0 425.0 L 582.0 427.0 L 582.0 428.0 L 580.0 430.0 L 579.0 430.0 L 577.0 428.0 L 577.0 427.0 Z M 591.0 416.0 L 592.0 416.0 L 593.0 417.0 L 594.0 417.0 L 597.0 420.0 L 597.0 421.0 L 595.0 423.0 L 594.0 423.0 L 592.0 421.0 L 592.0 420.0 L 591.0 420.0 L 589.0 418.0 Z M 613.0 362.0 L 615.0 364.0 L 612.0 367.0 L 610.0 365.0 Z M 382.0 314.0 L 383.0 314.0 L 385.0 316.0 L 385.0 319.0 L 383.0 321.0 L 379.0 317.0 Z M 336.0 307.0 L 338.0 309.0 L 338.0 311.0 L 336.0 313.0 L 335.0 313.0 L 333.0 311.0 L 334.0 310.0 L 334.0 309.0 Z M 360.0 286.0 L 361.0 287.0 L 362.0 287.0 L 364.0 289.0 L 364.0 290.0 L 362.0 292.0 L 360.0 292.0 L 358.0 290.0 L 358.0 288.0 Z M 587.0 297.0 L 600.0 313.0 L 605.0 328.0 L 604.0 339.0 L 611.0 347.0 L 609.0 349.0 L 604.0 347.0 L 597.0 372.0 L 577.0 411.0 L 561.0 434.0 L 523.0 477.0 L 524.0 480.0 L 514.0 487.0 L 494.0 509.0 L 494.0 515.0 L 487.0 517.0 L 469.0 535.0 L 454.0 540.0 L 448.0 546.0 L 442.0 544.0 L 438.0 548.0 L 429.0 550.0 L 431.0 554.0 L 428.0 557.0 L 419.0 554.0 L 403.0 562.0 L 394.0 571.0 L 389.0 571.0 L 380.0 580.0 L 374.0 581.0 L 362.0 590.0 L 333.0 619.0 L 321.0 622.0 L 319.0 617.0 L 327.0 615.0 L 331.0 610.0 L 328.0 604.0 L 330.0 602.0 L 323.0 583.0 L 330.0 579.0 L 327.0 573.0 L 332.0 569.0 L 333.0 557.0 L 330.0 549.0 L 334.0 543.0 L 328.0 535.0 L 333.0 532.0 L 336.0 535.0 L 335.0 523.0 L 326.0 517.0 L 330.0 513.0 L 336.0 517.0 L 334.0 511.0 L 336.0 505.0 L 333.0 500.0 L 337.0 496.0 L 335.0 485.0 L 340.0 482.0 L 335.0 477.0 L 340.0 463.0 L 337.0 464.0 L 334.0 458.0 L 339.0 454.0 L 342.0 441.0 L 339.0 442.0 L 335.0 435.0 L 337.0 433.0 L 343.0 435.0 L 341.0 420.0 L 346.0 412.0 L 345.0 381.0 L 352.0 374.0 L 355.0 355.0 L 361.0 350.0 L 362.0 345.0 L 371.0 339.0 L 367.0 336.0 L 375.0 333.0 L 381.0 324.0 L 388.0 322.0 L 395.0 314.0 L 395.0 308.0 L 402.0 304.0 L 406.0 307.0 L 416.0 300.0 L 417.0 297.0 L 411.0 295.0 L 420.0 291.0 L 426.0 295.0 L 430.0 289.0 L 440.0 288.0 L 445.0 278.0 L 450.0 280.0 L 454.0 276.0 L 457.0 280.0 L 463.0 281.0 L 465.0 276.0 L 475.0 278.0 L 478.0 274.0 L 496.0 276.0 L 500.0 273.0 L 515.0 272.0 L 521.0 276.0 L 526.0 273.0 L 528.0 275.0 L 526.0 278.0 L 531.0 278.0 L 534.0 272.0 L 538.0 277.0 L 542.0 276.0 L 550.0 282.0 L 559.0 280.0 L 565.0 287.0 L 569.0 286.0 Z M 492.0 268.0 L 494.0 270.0 L 493.0 271.0 L 493.0 272.0 L 491.0 274.0 L 489.0 272.0 L 490.0 271.0 L 490.0 270.0 Z M 758.0 52.0 L 644.0 20.0 L 480.0 60.0 L 316.0 163.0 L 139.0 349.0 L 55.0 500.0 L 20.0 649.0 L 41.0 809.0 L 84.0 880.0 L 132.0 922.0 L 262.0 955.0 L 258.0 944.0 L 281.0 957.0 L 396.0 945.0 L 627.0 890.0 L 728.0 847.0 L 756.0 817.0 L 756.0 797.0 L 738.0 793.0 L 677.0 845.0 L 494.0 898.0 L 276.0 933.0 L 212.0 926.0 L 96.0 866.0 L 44.0 726.0 L 38.0 653.0 L 51.0 646.0 L 73.0 514.0 L 122.0 416.0 L 239.0 262.0 L 449.0 98.0 L 597.0 39.0 L 597.0 53.0 L 674.0 41.0 L 744.0 75.0 L 804.0 145.0 L 846.0 244.0 L 873.0 401.0 L 868.0 577.0 L 782.0 847.0 L 730.0 941.0 L 734.0 957.0 L 758.0 946.0 L 846.0 752.0 L 904.0 518.0 L 897.0 366.0 L 883.0 357.0 L 866.0 214.0 L 815.0 111.0 Z M 133.0 917.0 L 135.0 915.0 L 141.0 915.0 L 144.0 918.0 L 144.0 920.0 L 142.0 922.0 L 140.0 922.0 L 139.0 921.0 L 135.0 921.0 L 133.0 919.0 Z M 136.0 894.0 L 137.0 894.0 L 139.0 896.0 L 139.0 897.0 L 137.0 899.0 L 136.0 899.0 L 134.0 897.0 L 134.0 896.0 Z M 120.0 881.0 L 121.0 881.0 L 124.0 884.0 L 124.0 885.0 L 125.0 886.0 L 125.0 887.0 L 123.0 889.0 L 121.0 887.0 L 121.0 886.0 L 120.0 886.0 L 118.0 884.0 L 118.0 883.0 Z M 714.0 844.0 L 715.0 844.0 L 717.0 846.0 L 715.0 848.0 L 714.0 848.0 L 712.0 846.0 Z M 83.0 842.0 L 85.0 842.0 L 87.0 844.0 L 84.0 847.0 L 83.0 847.0 L 81.0 845.0 L 81.0 844.0 Z M 50.0 820.0 L 51.0 820.0 L 53.0 822.0 L 51.0 824.0 L 50.0 824.0 L 48.0 822.0 Z M 752.0 796.0 L 754.0 798.0 L 754.0 799.0 L 752.0 801.0 L 751.0 801.0 L 749.0 799.0 Z M 861.0 686.0 L 863.0 688.0 L 863.0 689.0 L 861.0 691.0 L 859.0 689.0 L 859.0 688.0 Z M 49.0 605.0 L 51.0 607.0 L 48.0 610.0 L 46.0 608.0 L 46.0 607.0 L 48.0 605.0 Z M 887.0 426.0 L 888.0 426.0 L 891.0 429.0 L 891.0 430.0 L 889.0 432.0 L 885.0 428.0 Z M 892.0 399.0 L 893.0 399.0 L 895.0 401.0 L 893.0 403.0 L 892.0 403.0 L 890.0 401.0 Z M 117.0 399.0 L 118.0 399.0 L 120.0 401.0 L 120.0 402.0 L 118.0 404.0 L 115.0 401.0 Z M 130.0 390.0 L 135.0 395.0 L 133.0 397.0 L 128.0 392.0 Z M 120.0 390.0 L 121.0 390.0 L 123.0 392.0 L 121.0 394.0 L 120.0 394.0 L 118.0 392.0 Z M 138.0 382.0 L 139.0 382.0 L 140.0 383.0 L 141.0 383.0 L 143.0 385.0 L 143.0 387.0 L 141.0 389.0 L 139.0 387.0 L 138.0 387.0 L 136.0 385.0 L 136.0 384.0 Z M 282.0 215.0 L 283.0 215.0 L 285.0 217.0 L 283.0 219.0 L 282.0 219.0 L 280.0 217.0 Z M 712.0 50.0 L 714.0 50.0 L 717.0 53.0 L 714.0 56.0 L 712.0 56.0 L 710.0 54.0 L 710.0 52.0 Z M 684.0 37.0 L 686.0 39.0 L 686.0 40.0 L 684.0 42.0 L 682.0 40.0 L 682.0 39.0 Z M 574.0 39.0 L 576.0 37.0 L 580.0 37.0 L 582.0 39.0 L 582.0 41.0 L 580.0 43.0 L 579.0 42.0 L 577.0 42.0 Z"/>
</svg>
